<?xml version="1.0" standalone="no"?>
<!DOCTYPE svg PUBLIC "-//W3C//DTD SVG 20010904//EN"
 "http://www.w3.org/TR/2001/REC-SVG-20010904/DTD/svg10.dtd">
<svg version="1.0" xmlns="http://www.w3.org/2000/svg"
 width="943.000000pt" height="943.000000pt" viewBox="0 0 943.000000 943.000000"
 preserveAspectRatio="xMidYMid meet">
<metadata>
Created by potrace 1.14, written by Peter Selinger 2001-2017
</metadata>
<g transform="translate(0.000000,943.000000) scale(0.100000,-0.100000)"
fill="#000000" stroke="none">
<path d="M6077 7556 c-103 -28 -185 -117 -207 -222 -20 -94 9 -188 79 -261 20
-21 53 -58 73 -83 20 -25 82 -91 137 -148 96 -98 189 -207 240 -282 72 -105
453 -502 696 -725 120 -110 167 -154 280 -260 148 -141 534 -479 687 -602 25
-21 65 -53 87 -71 23 -18 41 -38 41 -43 0 -6 -28 -8 -72 -4 -74 5 -266 11
-733 20 -143 3 -307 11 -365 17 -106 10 -195 13 -773 22 -174 3 -322 8 -328
11 -12 8 -250 14 -744 20 -192 2 -358 4 -367 4 -17 1 -18 26 -18 379 1 370 6
483 32 652 24 158 6 244 -65 318 -157 165 -443 87 -486 -131 -23 -119 -32
-176 -37 -242 -3 -38 -8 -101 -10 -140 -3 -38 -6 -240 -7 -447 l0 -378 -41 0
c-148 -2 -820 1 -822 3 -4 6 16 1040 22 1096 8 81 -7 134 -55 197 -129 170
-405 136 -492 -61 -32 -73 -42 -207 -47 -670 -2 -247 -4 -476 -4 -507 l0 -58
-441 0 -440 0 7 83 c13 149 18 377 20 817 1 431 1 435 -21 476 -36 67 -70 101
-135 133 -117 59 -247 34 -335 -63 -76 -83 -77 -85 -80 -541 -2 -220 -8 -494
-14 -610 -6 -115 -12 -229 -13 -252 -1 -23 -5 -46 -10 -50 -10 -10 -100 -12
-651 -16 -449 -3 -450 -3 -499 -26 -58 -29 -108 -77 -138 -134 -18 -34 -23
-58 -23 -127 0 -76 3 -91 30 -139 16 -29 50 -69 74 -88 82 -62 90 -63 651 -59
278 2 510 5 515 6 6 1 18 2 28 1 17 -1 17 -22 12 -413 -10 -653 -10 -656 13
-710 45 -104 148 -170 262 -172 131 -1 239 76 280 198 13 41 20 278 22 812 l1
292 66 5 c36 3 235 4 441 3 l375 -1 -4 -325 c-8 -576 -8 -589 15 -641 31 -66
78 -114 141 -146 146 -71 319 -5 386 146 23 53 25 75 31 611 3 190 5 347 5
350 1 9 829 5 838 -3 4 -5 8 -239 8 -520 l1 -512 24 -53 c98 -223 421 -225
524 -3 20 45 21 60 24 562 l3 517 47 4 c98 11 1039 -8 1107 -22 22 -4 132 -8
245 -9 305 -1 620 -11 750 -22 63 -5 225 -12 360 -14 135 -3 301 -7 370 -10
451 -16 551 -19 605 -17 33 1 71 0 84 -3 23 -6 23 -6 5 -27 -11 -11 -39 -31
-64 -44 -25 -14 -60 -35 -77 -47 -31 -21 -67 -43 -238 -147 -130 -79 -227
-147 -527 -370 -166 -124 -217 -159 -260 -181 -22 -11 -59 -34 -81 -50 -22
-16 -44 -29 -49 -29 -6 0 -23 -9 -39 -21 -34 -24 -151 -90 -219 -124 -25 -13
-65 -38 -88 -56 -23 -19 -74 -56 -112 -84 -39 -27 -95 -69 -125 -92 -29 -24
-89 -66 -132 -95 -100 -67 -170 -120 -242 -183 -32 -27 -86 -72 -120 -100 -62
-49 -109 -88 -207 -170 -26 -22 -67 -54 -91 -71 -62 -44 -101 -102 -119 -176
-15 -59 -15 -70 0 -126 36 -143 143 -227 286 -225 89 1 137 25 251 124 52 46
115 99 140 116 24 18 70 54 101 80 139 117 208 172 283 225 110 79 189 137
231 172 20 17 53 41 74 55 176 120 222 149 335 205 28 14 73 41 100 61 28 19
54 35 58 35 5 0 34 18 64 40 31 22 60 40 66 40 5 0 80 54 168 120 87 65 173
127 191 136 18 9 53 33 77 52 107 87 205 155 357 247 36 22 89 55 117 74 29
18 65 40 82 49 16 8 48 28 70 44 42 31 113 78 173 115 68 41 215 169 346 299
33 34 86 77 116 96 80 51 124 104 151 184 64 191 -7 359 -175 414 -36 12 -131
61 -217 113 -67 42 -233 168 -275 211 -19 19 -88 78 -234 201 -26 22 -76 63
-111 90 -34 28 -86 70 -114 95 -29 25 -81 70 -116 100 -117 101 -479 431 -532
484 -29 29 -108 104 -177 166 -69 62 -154 143 -190 180 -229 235 -314 326
-349 373 -22 30 -46 61 -54 69 -9 8 -24 29 -34 45 -23 39 -93 119 -219 251
-56 59 -140 150 -188 203 -64 72 -98 102 -134 117 -65 28 -136 35 -195 18z"/>
</g>
</svg>
